<svg version="1.2" xmlns="http://www.w3.org/2000/svg" viewBox="0 0 400 400" width="400" height="400">
	<title>New Project</title>
	<style>
		.s0 { fill: #fe1d1d;stroke: #ffffff;stroke-miterlimit:0;stroke-width: .7;stroke-dasharray: NaN } 
		.s1 { fill: #000000;stroke: #ffffff;stroke-miterlimit:0;stroke-width: .7;stroke-dasharray: NaN } 
	</style>
	<path id="F1" class="s0" aria-label="F1"  d="m72.5 107.8l-29.8 167.2h52l10.8-61.2h94.8l38.5-40.8h-126l3.7-21.7h102.3l41-43.5zm184.2 43.5h40.8l-21.8 123.7h51.8l29.7-167.3-61.2 0.1z"/>
	<path id="Fusion" class="s1" aria-label="Fusion"  d="m62.3 284.2l-6.2 34.8h10.8l2.2-12.7h19.8l8-8.5h-26.2l0.7-4.5h21.3l8.5-9.1zm87.8 0h-10.8l-3.5 19.6c-0.9 4.9-3.7 6.8-12.1 6.8-9.5 0-12.2-1.2-12.2-4.9 0-0.5 0.1-1.2 0.2-1.9l3.5-19.6h-10.8l-3.4 19.6c-0.2 1.2-0.3 2.3-0.3 3.3 0 8.3 6.6 12.5 21.5 12.5 14.5 0 22.5-5.3 24.4-15.8zm17 13.9c-2.3 0-3.4-0.6-3.4-2 0-2.1 1.3-2.8 4.2-2.8h24.1l8.6-9.1h-30.3c-12.1 0-17 5.4-17 12.4 0 5.1 3.6 8.4 11.5 8.4h19c2.1 0 3.2 0.7 3.2 2.1 0 2-1.2 3-4.1 3h-26.4l-8.5 8.9h32.4c12.4 0 17.1-5.5 17.1-13 0-5.2-4-7.9-11.5-7.9zm50.1-13.9h-10.7l-6.2 34.8h10.8zm31.1-0.6c-19.5 0-28.9 6.9-28.9 21.2 0 10.1 7.6 14.8 22.6 14.8 19.5 0 29-7 29-21.3 0-10-7.6-14.7-22.7-14.7zm-4.7 26.9c-9.4 0-13.4-1.1-13.4-6.7 0-9 2.5-11.1 16.5-11.1 9.5 0 13.4 1.1 13.4 6.7 0 8.9-2.6 11.1-16.5 11.1zm64.5 9.1c3.2 0 6.2-2 7.1-6.6l5.1-28.8h-9.8l-3.6 20.4-17.9-19.1c-1.5-1.6-2.8-1.9-4.1-1.9-3.2 0-6.2 1.9-7 6.5l-5.1 28.9h9.8l3.6-20.4 17.9 19.1c1.5 1.6 2.6 1.9 4 1.9z"/>
</svg>