<?xml version="1.0" standalone="no"?>
<!DOCTYPE svg PUBLIC "-//W3C//DTD SVG 20010904//EN"
 "http://www.w3.org/TR/2001/REC-SVG-20010904/DTD/svg10.dtd">
<svg version="1.0" xmlns="http://www.w3.org/2000/svg"
 width="20.000000pt" height="20.000000pt" viewBox="0 0 40.000000 40.000000"
 preserveAspectRatio="xMidYMid meet">

<g transform="translate(0.000000,40.000000) scale(0.100000,-0.100000)"
fill="#fffff" stroke="none">
<path d="M0 340 c0 -19 7 -20 180 -20 173 0 180 1 180 20 0 19 -7 20 -180 20
-173 0 -180 -1 -180 -20z"/>
<path d="M0 200 c0 -19 7 -20 115 -20 108 0 115 1 115 20 0 19 -7 20 -115 20
-108 0 -115 -1 -115 -20z"/>
<path d="M0 60 c0 -18 7 -20 65 -20 58 0 65 2 65 20 0 18 -7 20 -65 20 -58 0
-65 -2 -65 -20z"/>
</g>
</svg>
